<svg width="24" height="29" viewBox="0 0 24 29" fill="none" xmlns="http://www.w3.org/2000/svg">
<g clip-path="url(#clip0_99_223)">
<path d="M15.7458 12.0268L15.9126 12.6021" stroke="white" stroke-miterlimit="10"/>
<path d="M16.0913 12.6502L19.1114 10.5804" stroke="white" stroke-miterlimit="10"/>
<path d="M15.573 14.6274L15.7398 15.2027" stroke="white" stroke-miterlimit="10"/>
<path d="M15.9187 15.2526L18.9388 13.1828" stroke="white" stroke-miterlimit="10"/>
<path d="M15.7458 17.1834L15.9126 17.7605" stroke="white" stroke-miterlimit="10"/>
<path d="M16.0894 17.8086L19.1114 15.7388" stroke="white" stroke-miterlimit="10"/>
<path d="M17.1417 25.3485C16.6011 25.3484 16.0612 25.3157 15.5255 25.2505V27.9829C16.0623 28.0352 16.6018 28.0613 17.1417 28.0613C19.4896 28.0633 21.8041 27.5625 23.8928 26.6007V23.4408C21.9147 24.6844 19.5572 25.3505 17.1417 25.3485ZM17.1417 1.45705C16.6018 1.45701 16.0623 1.48318 15.5255 1.53542V4.26781C18.4715 3.90641 21.4613 4.55244 23.9007 6.07752V2.91764C21.8096 1.95471 19.4923 1.45394 17.1417 1.45705V1.45705ZM10.8355 23.7098C10.4151 23.4731 10.0124 23.2119 9.63021 22.9278ZM5.43462 16.1218H2.38672C2.62504 18.1984 3.40494 20.1956 4.66332 21.9517C5.9217 23.7078 7.62321 25.1735 9.63021 26.2302C9.99953 26.4261 10.3808 26.6078 10.7699 26.7735" fill="white"/>
<path d="M10.8355 23.7098C10.4151 23.4731 10.0124 23.2119 9.63021 22.9278M5.43462 16.1218H2.38672C2.62504 18.1984 3.40494 20.1956 4.66332 21.9517C5.9217 23.7078 7.62321 25.1735 9.63021 26.2302C9.99953 26.4261 10.3808 26.6078 10.7699 26.7735M17.1417 25.3485C16.6011 25.3484 16.0612 25.3157 15.5255 25.2505V27.9829C16.0623 28.0352 16.6018 28.0613 17.1417 28.0613C19.4896 28.0633 21.8041 27.5625 23.8928 26.6007V23.4408C21.9147 24.6844 19.5572 25.3505 17.1417 25.3485ZM17.1417 1.45705C16.6018 1.45701 16.0623 1.48318 15.5255 1.53542V4.26781C18.4715 3.90641 21.4613 4.55244 23.9007 6.07752V2.91764C21.8096 1.95471 19.4923 1.45394 17.1417 1.45705V1.45705Z" stroke="white" stroke-miterlimit="10"/>
<path d="M11.2127 5.61439C9.63527 6.43604 8.29141 7.57431 7.28651 8.93994C6.28161 10.3056 5.64299 11.8615 5.42072 13.4856H2.38672C2.6376 11.1667 3.56311 8.94755 5.0706 7.05038C6.57808 5.1532 8.61466 3.64452 10.9764 2.67538L11.2842 2.55426" fill="white"/>
<path d="M11.2107 5.66786C11.8272 5.34591 12.4752 5.07522 13.1467 4.85919" stroke="white" stroke-width="0.25" stroke-miterlimit="10"/>
<path d="M12.7118 24.5773C11.5973 24.1698 10.5577 23.6138 9.6282 22.9279C7.31625 21.22 5.81606 18.7864 5.43262 16.1218" fill="white"/>
<path d="M12.7118 24.5773C11.5973 24.1698 10.5577 23.6138 9.6282 22.9279C7.31625 21.22 5.81606 18.7864 5.43262 16.1218" stroke="white" stroke-miterlimit="10"/>
<path d="M13.1446 4.85914L11.2742 2.6059" stroke="white" stroke-miterlimit="10"/>
<path d="M12.7058 24.6449L10.7639 26.8429" stroke="white" stroke-miterlimit="10"/>
<path d="M5.42671 16.1913H2.38477" stroke="white" stroke-miterlimit="10"/>
<path d="M13.2301 2.25858C13.9253 2.25858 14.4889 1.75298 14.4889 1.12929C14.4889 0.505601 13.9253 0 13.2301 0C12.5348 0 11.9712 0.505601 11.9712 1.12929C11.9712 1.75298 12.5348 2.25858 13.2301 2.25858Z" fill="white"/>
<path d="M1.25887 15.8885C1.95413 15.8885 2.51775 15.3829 2.51775 14.7592C2.51775 14.1355 1.95413 13.6299 1.25887 13.6299C0.563617 13.6299 0 14.1355 0 14.7592C0 15.3829 0.563617 15.8885 1.25887 15.8885Z" fill="white"/>
<path d="M13.2301 29C13.9253 29 14.4889 28.4944 14.4889 27.8707C14.4889 27.247 13.9253 26.7414 13.2301 26.7414C12.5348 26.7414 11.9712 27.247 11.9712 27.8707C11.9712 28.4944 12.5348 29 13.2301 29Z" fill="white"/>
<path d="M17.3423 7.71625V5.14417V7.71625Z" stroke="white" stroke-width="4" stroke-miterlimit="10"/>
<path d="M5.70654 14.9462H8.57376H5.70654Z" stroke="white" stroke-width="4" stroke-miterlimit="10"/>
<path d="M17.3423 24.4152L17.3423 21.5777L17.3423 24.4152Z" stroke="white" stroke-width="4" stroke-miterlimit="10"/>
<path d="M8.36334 21.8431H8.2998" stroke="white" stroke-miterlimit="10"/>
<path d="M10.6946 26.7414H10.7541H10.8534" stroke="white" stroke-miterlimit="10"/>
<path d="M10.8991 23.8149L8.08545 25.174L10.762 26.6791L10.8991 23.8149Z" fill="white" stroke="white" stroke-miterlimit="10"/>
<path d="M8.2998 22.0355L8.71877 23.0134L9.40181 24.3439L9.63016 24.6271L10.3172 24.3136L10.7004 24.1302L10.8116 24.0447L10.9009 23.9307L8.2998 22.0159" fill="white"/>
<path d="M8.2998 22.0355L8.71877 23.0134L9.40181 24.3439L9.63016 24.6271L10.3172 24.3136L10.7004 24.1302L10.8116 24.0447L10.9009 23.9307L8.2998 22.0159" stroke="white" stroke-miterlimit="10"/>
<path d="M8.26416 21.8555L8.51236 22.267L8.61561 22.1263L8.26416 21.7843V21.8555Z" fill="white" stroke="white" stroke-miterlimit="10"/>
<path d="M8.61548 22.2154L8.9848 22.4932L8.63335 22.1317L8.61548 22.2154Z" fill="white" stroke="white" stroke-miterlimit="10"/>
<path d="M10.2776 23.4462L10.7799 23.863L10.8753 23.7739L10.3014 23.4462" fill="white"/>
<path d="M10.2776 23.4462L10.7799 23.863L10.8753 23.7739L10.3014 23.4462" stroke="white" stroke-miterlimit="10"/>
</g>
<defs>
<clipPath id="clip0_99_223">
<rect width="24" height="29" fill="white"/>
</clipPath>
</defs>
</svg>
